<?xml version="1.0" encoding="iso-8859-1"?>
<!-- Generator: Adobe Illustrator 19.0.0, SVG Export Plug-In . SVG Version: 6.00 Build 0)  -->
<svg version="1.1" id="Capa_1" xmlns="http://www.w3.org/2000/svg" xmlns:xlink="http://www.w3.org/1999/xlink" x="0px" y="0px"
	 viewBox="0 0 512 512" style="enable-background:new 0 0 512 512;" xml:space="preserve">
<circle style="fill:#FFE45C;" cx="256" cy="256" r="256"/>
<path style="fill:#FFBC36;" d="M512,256c0-10.833-0.68-21.507-1.986-31.986L372.333,86.333L139.667,423.667l86.605,86.606
	C236.027,511.4,245.943,512,256,512C397.385,512,512,397.385,512,256z"/>
<rect x="139.67" y="86.33" style="fill:#78938C;" width="232.67" height="337.33"/>
<g>
	<rect x="255.57" y="86.33" style="fill:#425E61;" width="116.76" height="337.33"/>
	<rect x="139.67" y="285.67" style="fill:#425E61;" width="232.67" height="138"/>
</g>
<rect x="256" y="285.67" style="fill:#354849;" width="116.33" height="138"/>
<rect x="162.67" y="109.67" style="fill:#425E61;" width="186.67" height="65.67"/>
<rect x="255.57" y="109.67" style="fill:#354849;" width="93.76" height="65.67"/>
<rect x="162.67" y="196.67" style="fill:#425E61;" width="186.67" height="65.67"/>
<rect x="255.57" y="196.67" style="fill:#354849;" width="93.76" height="65.67"/>
<circle style="fill:#425E61;" cx="283.5" cy="350.5" r="12"/>
<circle style="fill:#78938C;" cx="228.5" cy="350.5" r="12"/>
<g>
</g>
<g>
</g>
<g>
</g>
<g>
</g>
<g>
</g>
<g>
</g>
<g>
</g>
<g>
</g>
<g>
</g>
<g>
</g>
<g>
</g>
<g>
</g>
<g>
</g>
<g>
</g>
<g>
</g>
</svg>
